<mxfile host="app.diagrams.net" modified="2023-07-13T03:38:10.192Z" agent="Mozilla/5.0 (Windows NT 10.0; Win64; x64) AppleWebKit/537.36 (KHTML, like Gecko) Chrome/114.0.0.0 Safari/537.36" etag="RE2sJHmzTATCPPYB0XNw" version="21.5.0" type="github">
  <diagram name="Page-1" id="10a91c8b-09ff-31b1-d368-03940ed4cc9e">
    <mxGraphModel dx="2787" dy="1775" grid="1" gridSize="10" guides="1" tooltips="1" connect="1" arrows="1" fold="1" page="1" pageScale="1" pageWidth="1100" pageHeight="850" background="none" math="0" shadow="0">
      <root>
        <mxCell id="0" />
        <mxCell id="1" parent="0" />
        <mxCell id="62893188c0fa7362-1" value="标签分类" style="whiteSpace=wrap;html=1;rounded=1;shadow=1;labelBackgroundColor=none;strokeWidth=1;fontFamily=Verdana;fontSize=12;align=center;" parent="1" vertex="1">
          <mxGeometry x="680" y="-290" width="120" height="60" as="geometry" />
        </mxCell>
        <mxCell id="62893188c0fa7362-2" value="&lt;span&gt;行为标签&lt;/span&gt;" style="whiteSpace=wrap;html=1;rounded=1;shadow=1;labelBackgroundColor=none;strokeWidth=1;fontFamily=Verdana;fontSize=12;align=center;" parent="1" vertex="1">
          <mxGeometry x="370" y="-190" width="120" height="60" as="geometry" />
        </mxCell>
        <mxCell id="62893188c0fa7362-3" value="&lt;span&gt;行业标签&lt;/span&gt;" style="whiteSpace=wrap;html=1;rounded=1;shadow=1;labelBackgroundColor=none;strokeWidth=1;fontFamily=Verdana;fontSize=12;align=center;" parent="1" vertex="1">
          <mxGeometry x="1120" y="-190" width="120" height="60" as="geometry" />
        </mxCell>
        <mxCell id="62893188c0fa7362-5" value="" style="rounded=0;html=1;labelBackgroundColor=none;startArrow=none;startFill=0;startSize=5;endArrow=none;endFill=0;endSize=5;jettySize=auto;orthogonalLoop=1;strokeWidth=1;fontFamily=Verdana;fontSize=12" parent="1" source="62893188c0fa7362-1" target="62893188c0fa7362-2" edge="1">
          <mxGeometry x="-0.359" y="-11" relative="1" as="geometry">
            <mxPoint as="offset" />
          </mxGeometry>
        </mxCell>
        <mxCell id="62893188c0fa7362-8" value="&lt;span&gt;买家行为&lt;/span&gt;" style="whiteSpace=wrap;html=1;rounded=1;shadow=1;labelBackgroundColor=none;strokeWidth=1;fontFamily=Verdana;fontSize=12;align=center;" parent="1" vertex="1">
          <mxGeometry x="40" y="-90" width="120" height="60" as="geometry" />
        </mxCell>
        <mxCell id="62893188c0fa7362-9" value="&lt;span&gt;展商行为&lt;/span&gt;" style="whiteSpace=wrap;html=1;rounded=1;shadow=1;labelBackgroundColor=none;strokeWidth=1;fontFamily=Verdana;fontSize=12;align=center;" parent="1" vertex="1">
          <mxGeometry x="560" y="-90" width="120" height="60" as="geometry" />
        </mxCell>
        <mxCell id="62893188c0fa7362-10" value="&lt;span&gt;米奥标签&lt;/span&gt;体系" style="whiteSpace=wrap;html=1;rounded=0;shadow=1;labelBackgroundColor=none;strokeWidth=2;fontFamily=Verdana;fontSize=12;align=center;" parent="1" vertex="1">
          <mxGeometry x="810" y="-90" width="120" height="60" as="geometry" />
        </mxCell>
        <mxCell id="62893188c0fa7362-11" value="&lt;span&gt;阿里标签&lt;/span&gt;体系" style="whiteSpace=wrap;html=1;rounded=0;shadow=1;labelBackgroundColor=none;strokeWidth=2;fontFamily=Verdana;fontSize=12;align=center;" parent="1" vertex="1">
          <mxGeometry x="950" y="-90" width="120" height="60" as="geometry" />
        </mxCell>
        <mxCell id="62893188c0fa7362-12" value="&lt;span&gt;商洽行为（10个）&lt;/span&gt;" style="whiteSpace=wrap;html=1;rounded=1;shadow=1;labelBackgroundColor=none;strokeWidth=1;fontFamily=Verdana;fontSize=12;align=center;" parent="1" vertex="1">
          <mxGeometry x="-210" y="50" width="120" height="60" as="geometry" />
        </mxCell>
        <mxCell id="62893188c0fa7362-13" value="&lt;span&gt;到展行为(20个)&lt;/span&gt;" style="whiteSpace=wrap;html=1;rounded=1;shadow=1;labelBackgroundColor=none;strokeWidth=1;fontFamily=Verdana;fontSize=12;align=center;" parent="1" vertex="1">
          <mxGeometry x="-10" y="50" width="120" height="60" as="geometry" />
        </mxCell>
        <mxCell id="uT71Bbt4KiQEfUANzaNA-7" value="" style="endArrow=none;html=1;rounded=0;entryX=0.5;entryY=1;entryDx=0;entryDy=0;exitX=0.5;exitY=0;exitDx=0;exitDy=0;" edge="1" parent="1" source="62893188c0fa7362-12" target="62893188c0fa7362-8">
          <mxGeometry width="50" height="50" relative="1" as="geometry">
            <mxPoint x="120" y="400" as="sourcePoint" />
            <mxPoint x="170" y="350" as="targetPoint" />
          </mxGeometry>
        </mxCell>
        <mxCell id="uT71Bbt4KiQEfUANzaNA-13" value="" style="endArrow=none;html=1;rounded=0;exitX=0.5;exitY=0;exitDx=0;exitDy=0;" edge="1" parent="1" source="62893188c0fa7362-3" target="62893188c0fa7362-1">
          <mxGeometry width="50" height="50" relative="1" as="geometry">
            <mxPoint x="740" y="160" as="sourcePoint" />
            <mxPoint x="790" y="110" as="targetPoint" />
          </mxGeometry>
        </mxCell>
        <mxCell id="uT71Bbt4KiQEfUANzaNA-14" value="" style="endArrow=none;html=1;rounded=0;exitX=0.5;exitY=1;exitDx=0;exitDy=0;entryX=0.5;entryY=0;entryDx=0;entryDy=0;" edge="1" parent="1" source="62893188c0fa7362-3" target="62893188c0fa7362-10">
          <mxGeometry width="50" height="50" relative="1" as="geometry">
            <mxPoint x="1490" y="200" as="sourcePoint" />
            <mxPoint x="1320" y="133" as="targetPoint" />
            <Array as="points" />
          </mxGeometry>
        </mxCell>
        <mxCell id="uT71Bbt4KiQEfUANzaNA-15" value="" style="endArrow=none;html=1;rounded=0;exitX=0.5;exitY=0;exitDx=0;exitDy=0;entryX=0.5;entryY=1;entryDx=0;entryDy=0;" edge="1" parent="1" source="62893188c0fa7362-11" target="62893188c0fa7362-3">
          <mxGeometry width="50" height="50" relative="1" as="geometry">
            <mxPoint x="1540" y="260" as="sourcePoint" />
            <mxPoint x="1390" y="310" as="targetPoint" />
            <Array as="points" />
          </mxGeometry>
        </mxCell>
        <mxCell id="uT71Bbt4KiQEfUANzaNA-16" value="" style="endArrow=none;html=1;rounded=0;entryX=0.5;entryY=1;entryDx=0;entryDy=0;exitX=0.5;exitY=0;exitDx=0;exitDy=0;" edge="1" parent="1" source="62893188c0fa7362-9" target="62893188c0fa7362-2">
          <mxGeometry width="50" height="50" relative="1" as="geometry">
            <mxPoint x="410" y="290" as="sourcePoint" />
            <mxPoint x="460" y="240" as="targetPoint" />
          </mxGeometry>
        </mxCell>
        <mxCell id="uT71Bbt4KiQEfUANzaNA-18" value="&lt;span&gt;hscode标签&lt;/span&gt;体系" style="whiteSpace=wrap;html=1;rounded=0;shadow=1;labelBackgroundColor=none;strokeWidth=2;fontFamily=Verdana;fontSize=12;align=center;" vertex="1" parent="1">
          <mxGeometry x="1280" y="-90" width="120" height="60" as="geometry" />
        </mxCell>
        <mxCell id="uT71Bbt4KiQEfUANzaNA-19" value="naics标签体系" style="whiteSpace=wrap;html=1;rounded=0;shadow=1;labelBackgroundColor=none;strokeWidth=2;fontFamily=Verdana;fontSize=12;align=center;" vertex="1" parent="1">
          <mxGeometry x="1440" y="-90" width="120" height="60" as="geometry" />
        </mxCell>
        <mxCell id="uT71Bbt4KiQEfUANzaNA-20" value="" style="endArrow=none;html=1;rounded=0;exitX=0.5;exitY=0;exitDx=0;exitDy=0;entryX=0.5;entryY=1;entryDx=0;entryDy=0;" edge="1" parent="1" source="uT71Bbt4KiQEfUANzaNA-18" target="62893188c0fa7362-3">
          <mxGeometry width="50" height="50" relative="1" as="geometry">
            <mxPoint x="1540" y="300" as="sourcePoint" />
            <mxPoint x="1620" y="250" as="targetPoint" />
            <Array as="points" />
          </mxGeometry>
        </mxCell>
        <mxCell id="uT71Bbt4KiQEfUANzaNA-21" value="" style="endArrow=none;html=1;rounded=0;exitX=0.5;exitY=0;exitDx=0;exitDy=0;entryX=0.567;entryY=1.05;entryDx=0;entryDy=0;entryPerimeter=0;" edge="1" parent="1" source="uT71Bbt4KiQEfUANzaNA-19" target="62893188c0fa7362-3">
          <mxGeometry width="50" height="50" relative="1" as="geometry">
            <mxPoint x="1700" y="300" as="sourcePoint" />
            <mxPoint x="1620" y="250" as="targetPoint" />
            <Array as="points" />
          </mxGeometry>
        </mxCell>
        <mxCell id="uT71Bbt4KiQEfUANzaNA-24" value="展前行为（15个）" style="whiteSpace=wrap;html=1;rounded=1;shadow=1;labelBackgroundColor=none;strokeWidth=1;fontFamily=Verdana;fontSize=12;align=center;" vertex="1" parent="1">
          <mxGeometry x="180" y="50" width="120" height="60" as="geometry" />
        </mxCell>
        <mxCell id="uT71Bbt4KiQEfUANzaNA-27" value="" style="endArrow=none;html=1;rounded=0;exitX=0.5;exitY=0;exitDx=0;exitDy=0;entryX=0.5;entryY=1;entryDx=0;entryDy=0;" edge="1" parent="1" source="uT71Bbt4KiQEfUANzaNA-24" target="62893188c0fa7362-8">
          <mxGeometry width="50" height="50" relative="1" as="geometry">
            <mxPoint x="90" y="415" as="sourcePoint" />
            <mxPoint x="10" y="350" as="targetPoint" />
          </mxGeometry>
        </mxCell>
        <mxCell id="uT71Bbt4KiQEfUANzaNA-28" value="&lt;span&gt;商洽行为（10个）&lt;/span&gt;" style="whiteSpace=wrap;html=1;rounded=1;shadow=1;labelBackgroundColor=none;strokeWidth=1;fontFamily=Verdana;fontSize=12;align=center;" vertex="1" parent="1">
          <mxGeometry x="450" y="40" width="120" height="60" as="geometry" />
        </mxCell>
        <mxCell id="uT71Bbt4KiQEfUANzaNA-29" value="&lt;span&gt;扫码行为（5个）&lt;/span&gt;" style="whiteSpace=wrap;html=1;rounded=1;shadow=1;labelBackgroundColor=none;strokeWidth=1;fontFamily=Verdana;fontSize=12;align=center;" vertex="1" parent="1">
          <mxGeometry x="660" y="40" width="120" height="60" as="geometry" />
        </mxCell>
        <mxCell id="uT71Bbt4KiQEfUANzaNA-42" value="" style="endArrow=none;html=1;rounded=0;entryX=0.5;entryY=1;entryDx=0;entryDy=0;exitX=0.567;exitY=-0.017;exitDx=0;exitDy=0;exitPerimeter=0;" edge="1" parent="1" source="uT71Bbt4KiQEfUANzaNA-28" target="62893188c0fa7362-9">
          <mxGeometry width="50" height="50" relative="1" as="geometry">
            <mxPoint x="530" y="433" as="sourcePoint" />
            <mxPoint x="540" y="500" as="targetPoint" />
          </mxGeometry>
        </mxCell>
        <mxCell id="uT71Bbt4KiQEfUANzaNA-44" value="" style="endArrow=none;html=1;rounded=0;exitX=0.5;exitY=0;exitDx=0;exitDy=0;entryX=0.5;entryY=1;entryDx=0;entryDy=0;" edge="1" parent="1" source="uT71Bbt4KiQEfUANzaNA-29" target="62893188c0fa7362-9">
          <mxGeometry width="50" height="50" relative="1" as="geometry">
            <mxPoint x="549" y="443" as="sourcePoint" />
            <mxPoint x="750" y="390" as="targetPoint" />
          </mxGeometry>
        </mxCell>
        <mxCell id="uT71Bbt4KiQEfUANzaNA-69" value="" style="endArrow=none;html=1;rounded=0;entryX=0.427;entryY=1.025;entryDx=0;entryDy=0;exitX=0.5;exitY=0;exitDx=0;exitDy=0;entryPerimeter=0;" edge="1" parent="1" source="62893188c0fa7362-8" target="62893188c0fa7362-2">
          <mxGeometry width="50" height="50" relative="1" as="geometry">
            <mxPoint x="-570" y="415" as="sourcePoint" />
            <mxPoint x="-230" y="340" as="targetPoint" />
          </mxGeometry>
        </mxCell>
        <mxCell id="uT71Bbt4KiQEfUANzaNA-70" value="" style="endArrow=none;html=1;rounded=0;exitX=0.5;exitY=0;exitDx=0;exitDy=0;entryX=0.5;entryY=1;entryDx=0;entryDy=0;" edge="1" parent="1" source="62893188c0fa7362-13" target="62893188c0fa7362-8">
          <mxGeometry width="50" height="50" relative="1" as="geometry">
            <mxPoint x="-570" y="415" as="sourcePoint" />
            <mxPoint x="360" y="-20" as="targetPoint" />
          </mxGeometry>
        </mxCell>
        <mxCell id="uT71Bbt4KiQEfUANzaNA-77" value="是否商洽&lt;br&gt;商洽次数&lt;br&gt;商洽时间&lt;br&gt;平均商洽时间&lt;br&gt;。。。" style="text;html=1;strokeColor=none;fillColor=none;align=left;verticalAlign=middle;whiteSpace=wrap;rounded=0;" vertex="1" parent="1">
          <mxGeometry x="-210" y="160" width="80" height="20" as="geometry" />
        </mxCell>
        <mxCell id="uT71Bbt4KiQEfUANzaNA-78" value="是否到展&lt;br&gt;是否签到&lt;br&gt;到展次数&lt;br&gt;最早到展时间&lt;br&gt;扫码次数&lt;br&gt;。。。" style="text;html=1;strokeColor=none;fillColor=none;align=left;verticalAlign=middle;whiteSpace=wrap;rounded=0;" vertex="1" parent="1">
          <mxGeometry x="-10" y="149" width="90" height="31" as="geometry" />
        </mxCell>
        <mxCell id="uT71Bbt4KiQEfUANzaNA-82" value="是否是预注册买家&lt;br&gt;兴趣标签集合&lt;br&gt;是否拨打过电话&lt;br&gt;是否同意到展&lt;br&gt;。。。。" style="text;html=1;align=left;verticalAlign=middle;resizable=0;points=[];autosize=1;strokeColor=none;fillColor=none;" vertex="1" parent="1">
          <mxGeometry x="180" y="119.5" width="120" height="90" as="geometry" />
        </mxCell>
        <mxCell id="uT71Bbt4KiQEfUANzaNA-83" value="是否商洽&lt;br&gt;商洽次数&lt;br&gt;商洽时间&lt;br&gt;平均商洽时间&lt;br&gt;展商自选买家数&lt;br&gt;展商自提买家数&lt;br&gt;。。。" style="text;html=1;strokeColor=none;fillColor=none;align=left;verticalAlign=middle;whiteSpace=wrap;rounded=0;" vertex="1" parent="1">
          <mxGeometry x="450" y="149" width="110" height="20" as="geometry" />
        </mxCell>
        <mxCell id="uT71Bbt4KiQEfUANzaNA-84" value="展商扫码买家数&lt;br&gt;是否现场扫码&lt;br&gt;" style="text;html=1;strokeColor=none;fillColor=none;align=left;verticalAlign=middle;whiteSpace=wrap;rounded=0;" vertex="1" parent="1">
          <mxGeometry x="660" y="119.5" width="90" height="31" as="geometry" />
        </mxCell>
        <mxCell id="uT71Bbt4KiQEfUANzaNA-85" value="大行业标签体系" style="whiteSpace=wrap;html=1;rounded=0;shadow=1;labelBackgroundColor=none;strokeWidth=2;fontFamily=Verdana;fontSize=12;align=center;" vertex="1" parent="1">
          <mxGeometry x="1110" y="-90" width="120" height="60" as="geometry" />
        </mxCell>
        <mxCell id="uT71Bbt4KiQEfUANzaNA-86" value="" style="endArrow=none;html=1;rounded=0;exitX=0.5;exitY=0;exitDx=0;exitDy=0;" edge="1" parent="1" source="uT71Bbt4KiQEfUANzaNA-85">
          <mxGeometry width="50" height="50" relative="1" as="geometry">
            <mxPoint x="1450" y="-80" as="sourcePoint" />
            <mxPoint x="1170" y="-130" as="targetPoint" />
            <Array as="points" />
          </mxGeometry>
        </mxCell>
        <mxCell id="uT71Bbt4KiQEfUANzaNA-89" value="阿里t1转大行业" style="ellipse;whiteSpace=wrap;html=1;aspect=fixed;" vertex="1" parent="1">
          <mxGeometry x="990" y="40" width="80" height="80" as="geometry" />
        </mxCell>
        <mxCell id="uT71Bbt4KiQEfUANzaNA-90" value="米奥t3转大行业" style="ellipse;whiteSpace=wrap;html=1;aspect=fixed;" vertex="1" parent="1">
          <mxGeometry x="1090" y="40" width="80" height="80" as="geometry" />
        </mxCell>
        <mxCell id="uT71Bbt4KiQEfUANzaNA-91" value="hscode转大行业" style="ellipse;whiteSpace=wrap;html=1;aspect=fixed;" vertex="1" parent="1">
          <mxGeometry x="1180" y="39.5" width="80" height="80" as="geometry" />
        </mxCell>
        <mxCell id="uT71Bbt4KiQEfUANzaNA-92" value="" style="endArrow=none;html=1;rounded=0;exitX=0.427;exitY=1.034;exitDx=0;exitDy=0;entryX=0.5;entryY=0;entryDx=0;entryDy=0;exitPerimeter=0;" edge="1" parent="1" source="uT71Bbt4KiQEfUANzaNA-85" target="uT71Bbt4KiQEfUANzaNA-89">
          <mxGeometry width="50" height="50" relative="1" as="geometry">
            <mxPoint x="1020" y="-80" as="sourcePoint" />
            <mxPoint x="1190" y="-120" as="targetPoint" />
            <Array as="points" />
          </mxGeometry>
        </mxCell>
        <mxCell id="uT71Bbt4KiQEfUANzaNA-93" value="" style="endArrow=none;html=1;rounded=0;exitX=0.5;exitY=1;exitDx=0;exitDy=0;entryX=0.5;entryY=0;entryDx=0;entryDy=0;" edge="1" parent="1" source="uT71Bbt4KiQEfUANzaNA-85" target="uT71Bbt4KiQEfUANzaNA-90">
          <mxGeometry width="50" height="50" relative="1" as="geometry">
            <mxPoint x="1171" y="-18" as="sourcePoint" />
            <mxPoint x="1040" y="50" as="targetPoint" />
            <Array as="points" />
          </mxGeometry>
        </mxCell>
        <mxCell id="uT71Bbt4KiQEfUANzaNA-94" value="" style="endArrow=none;html=1;rounded=0;exitX=0.5;exitY=1;exitDx=0;exitDy=0;entryX=0.5;entryY=0;entryDx=0;entryDy=0;" edge="1" parent="1" source="uT71Bbt4KiQEfUANzaNA-85" target="uT71Bbt4KiQEfUANzaNA-91">
          <mxGeometry width="50" height="50" relative="1" as="geometry">
            <mxPoint x="1181" y="-8" as="sourcePoint" />
            <mxPoint x="1050" y="60" as="targetPoint" />
            <Array as="points" />
          </mxGeometry>
        </mxCell>
        <mxCell id="uT71Bbt4KiQEfUANzaNA-95" value="naics转大行业" style="ellipse;whiteSpace=wrap;html=1;aspect=fixed;" vertex="1" parent="1">
          <mxGeometry x="1270" y="40" width="80" height="80" as="geometry" />
        </mxCell>
        <mxCell id="uT71Bbt4KiQEfUANzaNA-96" value="" style="endArrow=none;html=1;rounded=0;exitX=0.5;exitY=1;exitDx=0;exitDy=0;entryX=0.405;entryY=0.033;entryDx=0;entryDy=0;entryPerimeter=0;" edge="1" parent="1" source="uT71Bbt4KiQEfUANzaNA-85" target="uT71Bbt4KiQEfUANzaNA-95">
          <mxGeometry width="50" height="50" relative="1" as="geometry">
            <mxPoint x="1180" y="-20" as="sourcePoint" />
            <mxPoint x="1230" y="50" as="targetPoint" />
            <Array as="points" />
          </mxGeometry>
        </mxCell>
      </root>
    </mxGraphModel>
  </diagram>
</mxfile>
